<mxfile host="app.diagrams.net" agent="Mozilla/5.0 (X11; Linux x86_64; rv:140.0) Gecko/20100101 Firefox/140.0" version="28.0.7">
  <diagram id="master-node" name="Flow">
    <mxGraphModel dx="2276" dy="722" grid="1" gridSize="10" guides="1" tooltips="1" connect="1" arrows="1" fold="1" page="1" pageScale="1" pageWidth="850" pageHeight="1100" background="#ffffff" math="0" shadow="0">
      <root>
        <mxCell id="0" />
        <mxCell id="1" parent="0" />
        <mxCell id="e-fHg1qAu55DlBUtpJUG-63" style="edgeStyle=orthogonalEdgeStyle;rounded=0;orthogonalLoop=1;jettySize=auto;html=1;" edge="1" parent="1" source="e-fHg1qAu55DlBUtpJUG-8" target="e-fHg1qAu55DlBUtpJUG-29">
          <mxGeometry relative="1" as="geometry" />
        </mxCell>
        <mxCell id="e-fHg1qAu55DlBUtpJUG-8" value="" style="swimlane;startSize=0;fillColor=#1ba1e2;fontColor=#ffffff;strokeColor=#006EAF;" vertex="1" parent="1">
          <mxGeometry x="225" y="180" width="400" height="590" as="geometry" />
        </mxCell>
        <mxCell id="e-fHg1qAu55DlBUtpJUG-10" value="setup()" style="text;html=1;align=center;verticalAlign=middle;resizable=0;points=[];autosize=1;strokeColor=none;fillColor=none;" vertex="1" parent="e-fHg1qAu55DlBUtpJUG-8">
          <mxGeometry x="310" y="10" width="60" height="30" as="geometry" />
        </mxCell>
        <mxCell id="e-fHg1qAu55DlBUtpJUG-23" style="edgeStyle=orthogonalEdgeStyle;rounded=0;orthogonalLoop=1;jettySize=auto;html=1;" edge="1" parent="e-fHg1qAu55DlBUtpJUG-8" source="e-fHg1qAu55DlBUtpJUG-11" target="e-fHg1qAu55DlBUtpJUG-12">
          <mxGeometry relative="1" as="geometry" />
        </mxCell>
        <mxCell id="e-fHg1qAu55DlBUtpJUG-11" value="prepare filesystem" style="rounded=0;whiteSpace=wrap;html=1;fillColor=#1ba1e2;fontColor=#ffffff;strokeColor=#006EAF;" vertex="1" parent="e-fHg1qAu55DlBUtpJUG-8">
          <mxGeometry x="40" y="30" width="120" height="60" as="geometry" />
        </mxCell>
        <mxCell id="e-fHg1qAu55DlBUtpJUG-26" style="edgeStyle=orthogonalEdgeStyle;rounded=0;orthogonalLoop=1;jettySize=auto;html=1;" edge="1" parent="e-fHg1qAu55DlBUtpJUG-8" source="e-fHg1qAu55DlBUtpJUG-15" target="e-fHg1qAu55DlBUtpJUG-18">
          <mxGeometry relative="1" as="geometry" />
        </mxCell>
        <mxCell id="e-fHg1qAu55DlBUtpJUG-15" value="connection to local WiFi" style="rounded=0;whiteSpace=wrap;html=1;fillColor=#b1ddf0;strokeColor=#10739e;" vertex="1" parent="e-fHg1qAu55DlBUtpJUG-8">
          <mxGeometry x="40" y="295" width="120" height="60" as="geometry" />
        </mxCell>
        <mxCell id="e-fHg1qAu55DlBUtpJUG-25" style="edgeStyle=orthogonalEdgeStyle;rounded=0;orthogonalLoop=1;jettySize=auto;html=1;" edge="1" parent="e-fHg1qAu55DlBUtpJUG-8" source="e-fHg1qAu55DlBUtpJUG-13" target="e-fHg1qAu55DlBUtpJUG-15">
          <mxGeometry relative="1" as="geometry" />
        </mxCell>
        <mxCell id="e-fHg1qAu55DlBUtpJUG-13" value="LoRa listening for incoming programs" style="rounded=0;whiteSpace=wrap;html=1;fillColor=#b0e3e6;strokeColor=#0e8088;" vertex="1" parent="e-fHg1qAu55DlBUtpJUG-8">
          <mxGeometry x="40" y="210" width="120" height="60" as="geometry" />
        </mxCell>
        <mxCell id="e-fHg1qAu55DlBUtpJUG-24" style="edgeStyle=orthogonalEdgeStyle;rounded=0;orthogonalLoop=1;jettySize=auto;html=1;" edge="1" parent="e-fHg1qAu55DlBUtpJUG-8" source="e-fHg1qAu55DlBUtpJUG-12" target="e-fHg1qAu55DlBUtpJUG-13">
          <mxGeometry relative="1" as="geometry" />
        </mxCell>
        <mxCell id="e-fHg1qAu55DlBUtpJUG-12" value="setup LoRa" style="rounded=0;whiteSpace=wrap;html=1;fillColor=#6d8764;fontColor=#ffffff;strokeColor=#3A5431;" vertex="1" parent="e-fHg1qAu55DlBUtpJUG-8">
          <mxGeometry x="40" y="120" width="120" height="60" as="geometry" />
        </mxCell>
        <mxCell id="e-fHg1qAu55DlBUtpJUG-17" value="HTTP server configuration and startup" style="shape=cube;whiteSpace=wrap;html=1;boundedLbl=1;backgroundOutline=1;darkOpacity=0.05;darkOpacity2=0.1;fillColor=#fa6800;fontColor=#000000;strokeColor=#C73500;" vertex="1" parent="e-fHg1qAu55DlBUtpJUG-8">
          <mxGeometry x="40" y="480" width="120" height="80" as="geometry" />
        </mxCell>
        <mxCell id="e-fHg1qAu55DlBUtpJUG-18" value="mark program updated to FALSE" style="rounded=0;whiteSpace=wrap;html=1;fillColor=#76608a;fontColor=#ffffff;strokeColor=#432D57;" vertex="1" parent="e-fHg1qAu55DlBUtpJUG-8">
          <mxGeometry x="40" y="380" width="120" height="60" as="geometry" />
        </mxCell>
        <mxCell id="e-fHg1qAu55DlBUtpJUG-19" value="&lt;div&gt;FILE:&lt;/div&gt;&lt;div&gt;&lt;br&gt;&lt;/div&gt;&lt;div&gt;program-updated&lt;/div&gt;" style="shape=cylinder3;whiteSpace=wrap;html=1;boundedLbl=1;backgroundOutline=1;size=15;fillColor=#76608a;fontColor=#ffffff;strokeColor=#432D57;" vertex="1" parent="e-fHg1qAu55DlBUtpJUG-8">
          <mxGeometry x="250" y="355" width="115" height="110" as="geometry" />
        </mxCell>
        <mxCell id="e-fHg1qAu55DlBUtpJUG-20" style="edgeStyle=orthogonalEdgeStyle;rounded=0;orthogonalLoop=1;jettySize=auto;html=1;entryX=0;entryY=0.5;entryDx=0;entryDy=0;entryPerimeter=0;" edge="1" parent="e-fHg1qAu55DlBUtpJUG-8" source="e-fHg1qAu55DlBUtpJUG-18" target="e-fHg1qAu55DlBUtpJUG-19">
          <mxGeometry relative="1" as="geometry" />
        </mxCell>
        <mxCell id="e-fHg1qAu55DlBUtpJUG-21" value="write" style="text;html=1;align=center;verticalAlign=middle;resizable=0;points=[];autosize=1;strokeColor=none;fillColor=none;" vertex="1" parent="e-fHg1qAu55DlBUtpJUG-8">
          <mxGeometry x="175" y="380" width="50" height="30" as="geometry" />
        </mxCell>
        <mxCell id="e-fHg1qAu55DlBUtpJUG-27" style="edgeStyle=orthogonalEdgeStyle;rounded=0;orthogonalLoop=1;jettySize=auto;html=1;entryX=0.5;entryY=0;entryDx=0;entryDy=0;entryPerimeter=0;" edge="1" parent="e-fHg1qAu55DlBUtpJUG-8" source="e-fHg1qAu55DlBUtpJUG-18" target="e-fHg1qAu55DlBUtpJUG-17">
          <mxGeometry relative="1" as="geometry" />
        </mxCell>
        <mxCell id="e-fHg1qAu55DlBUtpJUG-28" style="edgeStyle=orthogonalEdgeStyle;rounded=0;orthogonalLoop=1;jettySize=auto;html=1;entryX=0.5;entryY=0;entryDx=0;entryDy=0;" edge="1" parent="1" source="e-fHg1qAu55DlBUtpJUG-9" target="e-fHg1qAu55DlBUtpJUG-8">
          <mxGeometry relative="1" as="geometry" />
        </mxCell>
        <mxCell id="e-fHg1qAu55DlBUtpJUG-9" value="Start" style="ellipse;whiteSpace=wrap;html=1;aspect=fixed;fillColor=#60a917;fontColor=#ffffff;strokeColor=#2D7600;" vertex="1" parent="1">
          <mxGeometry x="385" y="40" width="80" height="80" as="geometry" />
        </mxCell>
        <mxCell id="e-fHg1qAu55DlBUtpJUG-29" value="" style="swimlane;startSize=0;fillColor=#e51400;fontColor=#ffffff;strokeColor=#B20000;" vertex="1" parent="1">
          <mxGeometry x="225" y="850" width="400" height="840" as="geometry" />
        </mxCell>
        <mxCell id="e-fHg1qAu55DlBUtpJUG-30" value="loop()" style="text;html=1;align=center;verticalAlign=middle;resizable=0;points=[];autosize=1;strokeColor=none;fillColor=none;" vertex="1" parent="e-fHg1qAu55DlBUtpJUG-29">
          <mxGeometry x="335" y="10" width="50" height="30" as="geometry" />
        </mxCell>
        <mxCell id="e-fHg1qAu55DlBUtpJUG-31" style="edgeStyle=orthogonalEdgeStyle;rounded=0;orthogonalLoop=1;jettySize=auto;html=1;" edge="1" parent="e-fHg1qAu55DlBUtpJUG-29" source="e-fHg1qAu55DlBUtpJUG-32">
          <mxGeometry relative="1" as="geometry">
            <mxPoint x="100" y="120" as="targetPoint" />
          </mxGeometry>
        </mxCell>
        <mxCell id="e-fHg1qAu55DlBUtpJUG-32" value="handle HTTP client requests" style="rounded=0;whiteSpace=wrap;html=1;fillColor=#fa6800;fontColor=#000000;strokeColor=#C73500;" vertex="1" parent="e-fHg1qAu55DlBUtpJUG-29">
          <mxGeometry x="40" y="30" width="120" height="60" as="geometry" />
        </mxCell>
        <mxCell id="e-fHg1qAu55DlBUtpJUG-47" value="" style="swimlane;startSize=0;" vertex="1" parent="e-fHg1qAu55DlBUtpJUG-29">
          <mxGeometry x="40" y="120" width="330" height="690" as="geometry" />
        </mxCell>
        <mxCell id="e-fHg1qAu55DlBUtpJUG-48" value="every 10 min" style="text;html=1;align=center;verticalAlign=middle;resizable=0;points=[];autosize=1;strokeColor=none;fillColor=none;" vertex="1" parent="e-fHg1qAu55DlBUtpJUG-47">
          <mxGeometry x="235" y="10" width="90" height="30" as="geometry" />
        </mxCell>
        <mxCell id="e-fHg1qAu55DlBUtpJUG-51" value="" style="edgeStyle=orthogonalEdgeStyle;rounded=0;orthogonalLoop=1;jettySize=auto;html=1;" edge="1" parent="e-fHg1qAu55DlBUtpJUG-47" source="e-fHg1qAu55DlBUtpJUG-49" target="e-fHg1qAu55DlBUtpJUG-50">
          <mxGeometry relative="1" as="geometry" />
        </mxCell>
        <mxCell id="e-fHg1qAu55DlBUtpJUG-49" value="program updated?" style="rhombus;whiteSpace=wrap;html=1;fillColor=#e51400;fontColor=#ffffff;strokeColor=#B20000;" vertex="1" parent="e-fHg1qAu55DlBUtpJUG-47">
          <mxGeometry x="30" y="40" width="130" height="130" as="geometry" />
        </mxCell>
        <mxCell id="e-fHg1qAu55DlBUtpJUG-65" value="" style="edgeStyle=orthogonalEdgeStyle;rounded=0;orthogonalLoop=1;jettySize=auto;html=1;" edge="1" parent="e-fHg1qAu55DlBUtpJUG-47" source="e-fHg1qAu55DlBUtpJUG-50" target="e-fHg1qAu55DlBUtpJUG-64">
          <mxGeometry relative="1" as="geometry" />
        </mxCell>
        <mxCell id="e-fHg1qAu55DlBUtpJUG-50" value="fetch program" style="whiteSpace=wrap;html=1;fillColor=#647687;fontColor=#ffffff;strokeColor=#314354;" vertex="1" parent="e-fHg1qAu55DlBUtpJUG-47">
          <mxGeometry x="35" y="205" width="120" height="60" as="geometry" />
        </mxCell>
        <mxCell id="e-fHg1qAu55DlBUtpJUG-53" style="edgeStyle=orthogonalEdgeStyle;rounded=0;orthogonalLoop=1;jettySize=auto;html=1;entryX=1;entryY=0.5;entryDx=0;entryDy=0;" edge="1" parent="e-fHg1qAu55DlBUtpJUG-47" source="e-fHg1qAu55DlBUtpJUG-52" target="e-fHg1qAu55DlBUtpJUG-50">
          <mxGeometry relative="1" as="geometry" />
        </mxCell>
        <mxCell id="e-fHg1qAu55DlBUtpJUG-52" value="&lt;div&gt;FILE:&lt;/div&gt;&lt;div&gt;&lt;br&gt;&lt;/div&gt;&lt;div&gt;program.json&lt;/div&gt;" style="shape=cylinder3;whiteSpace=wrap;html=1;boundedLbl=1;backgroundOutline=1;size=15;fillColor=#647687;fontColor=#ffffff;strokeColor=#314354;" vertex="1" parent="e-fHg1qAu55DlBUtpJUG-47">
          <mxGeometry x="225" y="190" width="90" height="90" as="geometry" />
        </mxCell>
        <mxCell id="e-fHg1qAu55DlBUtpJUG-54" value="read" style="text;html=1;align=center;verticalAlign=middle;resizable=0;points=[];autosize=1;strokeColor=none;fillColor=none;" vertex="1" parent="e-fHg1qAu55DlBUtpJUG-47">
          <mxGeometry x="165" y="205" width="50" height="30" as="geometry" />
        </mxCell>
        <mxCell id="e-fHg1qAu55DlBUtpJUG-68" value="" style="edgeStyle=orthogonalEdgeStyle;rounded=0;orthogonalLoop=1;jettySize=auto;html=1;" edge="1" parent="e-fHg1qAu55DlBUtpJUG-47" source="e-fHg1qAu55DlBUtpJUG-64" target="e-fHg1qAu55DlBUtpJUG-67">
          <mxGeometry relative="1" as="geometry" />
        </mxCell>
        <mxCell id="e-fHg1qAu55DlBUtpJUG-64" value="check rules" style="whiteSpace=wrap;html=1;fillColor=#a20025;fontColor=#ffffff;strokeColor=#6F0000;" vertex="1" parent="e-fHg1qAu55DlBUtpJUG-47">
          <mxGeometry x="35" y="345" width="120" height="60" as="geometry" />
        </mxCell>
        <mxCell id="e-fHg1qAu55DlBUtpJUG-66" value="program rules passed along" style="text;html=1;align=center;verticalAlign=middle;resizable=0;points=[];autosize=1;strokeColor=none;fillColor=none;" vertex="1" parent="e-fHg1qAu55DlBUtpJUG-47">
          <mxGeometry x="95" y="290" width="170" height="30" as="geometry" />
        </mxCell>
        <mxCell id="e-fHg1qAu55DlBUtpJUG-70" value="" style="edgeStyle=orthogonalEdgeStyle;rounded=0;orthogonalLoop=1;jettySize=auto;html=1;" edge="1" parent="e-fHg1qAu55DlBUtpJUG-47" source="e-fHg1qAu55DlBUtpJUG-67" target="e-fHg1qAu55DlBUtpJUG-69">
          <mxGeometry relative="1" as="geometry" />
        </mxCell>
        <mxCell id="e-fHg1qAu55DlBUtpJUG-67" value="build LoRa payload for nodes" style="whiteSpace=wrap;html=1;fillColor=#d80073;fontColor=#ffffff;strokeColor=#A50040;" vertex="1" parent="e-fHg1qAu55DlBUtpJUG-47">
          <mxGeometry x="35" y="430" width="120" height="60" as="geometry" />
        </mxCell>
        <mxCell id="e-fHg1qAu55DlBUtpJUG-71" style="edgeStyle=orthogonalEdgeStyle;rounded=0;orthogonalLoop=1;jettySize=auto;html=1;entryX=0.5;entryY=0;entryDx=0;entryDy=0;" edge="1" parent="e-fHg1qAu55DlBUtpJUG-47" source="e-fHg1qAu55DlBUtpJUG-69" target="e-fHg1qAu55DlBUtpJUG-57">
          <mxGeometry relative="1" as="geometry" />
        </mxCell>
        <mxCell id="e-fHg1qAu55DlBUtpJUG-69" value="send payload to nodes via LoRa" style="whiteSpace=wrap;html=1;fillColor=#0050ef;fontColor=#ffffff;strokeColor=#001DBC;" vertex="1" parent="e-fHg1qAu55DlBUtpJUG-47">
          <mxGeometry x="35" y="510" width="120" height="60" as="geometry" />
        </mxCell>
        <mxCell id="e-fHg1qAu55DlBUtpJUG-57" value="mark program updated to FALSE" style="rounded=0;whiteSpace=wrap;html=1;fillColor=#76608a;fontColor=#ffffff;strokeColor=#432D57;" vertex="1" parent="e-fHg1qAu55DlBUtpJUG-47">
          <mxGeometry x="35" y="590" width="120" height="60" as="geometry" />
        </mxCell>
        <mxCell id="e-fHg1qAu55DlBUtpJUG-58" value="&lt;div&gt;FILE:&lt;/div&gt;&lt;div&gt;&lt;br&gt;&lt;/div&gt;&lt;div&gt;program-updated&lt;/div&gt;" style="shape=cylinder3;whiteSpace=wrap;html=1;boundedLbl=1;backgroundOutline=1;size=15;fillColor=#76608a;fontColor=#ffffff;strokeColor=#432D57;" vertex="1" parent="e-fHg1qAu55DlBUtpJUG-47">
          <mxGeometry x="215" y="572.5" width="100" height="95" as="geometry" />
        </mxCell>
        <mxCell id="e-fHg1qAu55DlBUtpJUG-59" value="write" style="text;html=1;align=center;verticalAlign=middle;resizable=0;points=[];autosize=1;strokeColor=none;fillColor=none;" vertex="1" parent="e-fHg1qAu55DlBUtpJUG-47">
          <mxGeometry x="160" y="590" width="50" height="30" as="geometry" />
        </mxCell>
        <mxCell id="e-fHg1qAu55DlBUtpJUG-60" style="edgeStyle=orthogonalEdgeStyle;rounded=0;orthogonalLoop=1;jettySize=auto;html=1;entryX=0;entryY=0.5;entryDx=0;entryDy=0;entryPerimeter=0;" edge="1" parent="e-fHg1qAu55DlBUtpJUG-47" source="e-fHg1qAu55DlBUtpJUG-57" target="e-fHg1qAu55DlBUtpJUG-58">
          <mxGeometry relative="1" as="geometry" />
        </mxCell>
        <mxCell id="e-fHg1qAu55DlBUtpJUG-93" style="edgeStyle=orthogonalEdgeStyle;rounded=0;orthogonalLoop=1;jettySize=auto;html=1;entryX=0.5;entryY=0;entryDx=0;entryDy=0;exitX=1;exitY=0.5;exitDx=0;exitDy=0;" edge="1" parent="e-fHg1qAu55DlBUtpJUG-47" source="e-fHg1qAu55DlBUtpJUG-49" target="e-fHg1qAu55DlBUtpJUG-49">
          <mxGeometry relative="1" as="geometry">
            <Array as="points">
              <mxPoint x="215" y="105" />
              <mxPoint x="215" y="10" />
              <mxPoint x="95" y="10" />
            </Array>
          </mxGeometry>
        </mxCell>
        <mxCell id="e-fHg1qAu55DlBUtpJUG-94" value="no" style="text;html=1;align=center;verticalAlign=middle;resizable=0;points=[];autosize=1;strokeColor=none;fillColor=none;" vertex="1" parent="e-fHg1qAu55DlBUtpJUG-47">
          <mxGeometry x="165" y="70" width="40" height="30" as="geometry" />
        </mxCell>
        <mxCell id="e-fHg1qAu55DlBUtpJUG-72" value="yes" style="text;html=1;align=center;verticalAlign=middle;resizable=0;points=[];autosize=1;strokeColor=none;fillColor=none;" vertex="1" parent="1">
          <mxGeometry x="360" y="1138" width="40" height="30" as="geometry" />
        </mxCell>
        <mxCell id="e-fHg1qAu55DlBUtpJUG-74" value="" style="swimlane;startSize=0;" vertex="1" parent="1">
          <mxGeometry x="-140" y="480" width="337.5" height="340" as="geometry" />
        </mxCell>
        <mxCell id="e-fHg1qAu55DlBUtpJUG-82" value="" style="edgeStyle=orthogonalEdgeStyle;rounded=0;orthogonalLoop=1;jettySize=auto;html=1;" edge="1" parent="e-fHg1qAu55DlBUtpJUG-74" source="e-fHg1qAu55DlBUtpJUG-76">
          <mxGeometry relative="1" as="geometry">
            <mxPoint x="90" y="195" as="targetPoint" />
          </mxGeometry>
        </mxCell>
        <mxCell id="e-fHg1qAu55DlBUtpJUG-76" value="persist program rule" style="whiteSpace=wrap;html=1;fillColor=#647687;fontColor=#ffffff;strokeColor=#314354;" vertex="1" parent="e-fHg1qAu55DlBUtpJUG-74">
          <mxGeometry x="30" y="55" width="120" height="60" as="geometry" />
        </mxCell>
        <mxCell id="e-fHg1qAu55DlBUtpJUG-78" value="&lt;div&gt;FILE:&lt;/div&gt;&lt;div&gt;&lt;br&gt;&lt;/div&gt;&lt;div&gt;program.json&lt;/div&gt;" style="shape=cylinder3;whiteSpace=wrap;html=1;boundedLbl=1;backgroundOutline=1;size=15;fillColor=#647687;fontColor=#ffffff;strokeColor=#314354;" vertex="1" parent="e-fHg1qAu55DlBUtpJUG-74">
          <mxGeometry x="210" y="40" width="90" height="90" as="geometry" />
        </mxCell>
        <mxCell id="e-fHg1qAu55DlBUtpJUG-79" style="edgeStyle=orthogonalEdgeStyle;rounded=0;orthogonalLoop=1;jettySize=auto;html=1;entryX=0;entryY=0.5;entryDx=0;entryDy=0;entryPerimeter=0;" edge="1" parent="e-fHg1qAu55DlBUtpJUG-74" source="e-fHg1qAu55DlBUtpJUG-76" target="e-fHg1qAu55DlBUtpJUG-78">
          <mxGeometry relative="1" as="geometry" />
        </mxCell>
        <mxCell id="e-fHg1qAu55DlBUtpJUG-80" value="write" style="text;html=1;align=center;verticalAlign=middle;resizable=0;points=[];autosize=1;strokeColor=none;fillColor=none;" vertex="1" parent="e-fHg1qAu55DlBUtpJUG-74">
          <mxGeometry x="150" y="55" width="50" height="30" as="geometry" />
        </mxCell>
        <mxCell id="e-fHg1qAu55DlBUtpJUG-84" value="mark program updated to TRUE" style="rounded=0;whiteSpace=wrap;html=1;fillColor=#76608a;fontColor=#ffffff;strokeColor=#432D57;" vertex="1" parent="e-fHg1qAu55DlBUtpJUG-74">
          <mxGeometry x="22.5" y="195" width="120" height="60" as="geometry" />
        </mxCell>
        <mxCell id="e-fHg1qAu55DlBUtpJUG-85" value="&lt;div&gt;FILE:&lt;/div&gt;&lt;div&gt;&lt;br&gt;&lt;/div&gt;&lt;div&gt;program-updated&lt;/div&gt;" style="shape=cylinder3;whiteSpace=wrap;html=1;boundedLbl=1;backgroundOutline=1;size=15;fillColor=#76608a;fontColor=#ffffff;strokeColor=#432D57;" vertex="1" parent="e-fHg1qAu55DlBUtpJUG-74">
          <mxGeometry x="200" y="170" width="115" height="110" as="geometry" />
        </mxCell>
        <mxCell id="e-fHg1qAu55DlBUtpJUG-86" style="edgeStyle=orthogonalEdgeStyle;rounded=0;orthogonalLoop=1;jettySize=auto;html=1;entryX=0;entryY=0.5;entryDx=0;entryDy=0;entryPerimeter=0;" edge="1" parent="e-fHg1qAu55DlBUtpJUG-74" source="e-fHg1qAu55DlBUtpJUG-84" target="e-fHg1qAu55DlBUtpJUG-85">
          <mxGeometry relative="1" as="geometry" />
        </mxCell>
        <mxCell id="e-fHg1qAu55DlBUtpJUG-87" value="write" style="text;html=1;align=center;verticalAlign=middle;resizable=0;points=[];autosize=1;strokeColor=none;fillColor=none;" vertex="1" parent="e-fHg1qAu55DlBUtpJUG-74">
          <mxGeometry x="142.5" y="195" width="50" height="30" as="geometry" />
        </mxCell>
        <mxCell id="e-fHg1qAu55DlBUtpJUG-88" style="edgeStyle=orthogonalEdgeStyle;rounded=0;orthogonalLoop=1;jettySize=auto;html=1;entryX=0.5;entryY=0;entryDx=0;entryDy=0;" edge="1" parent="1" source="e-fHg1qAu55DlBUtpJUG-13" target="e-fHg1qAu55DlBUtpJUG-74">
          <mxGeometry relative="1" as="geometry" />
        </mxCell>
        <mxCell id="e-fHg1qAu55DlBUtpJUG-89" value="on LoRa packet received" style="text;html=1;align=center;verticalAlign=middle;resizable=0;points=[];autosize=1;strokeColor=none;fillColor=none;" vertex="1" parent="1">
          <mxGeometry x="30" y="390" width="160" height="30" as="geometry" />
        </mxCell>
      </root>
    </mxGraphModel>
  </diagram>
</mxfile>
